{
	"asset":{
		"generator":"Khronos glTF Blender I/O v4.4.56",
		"version":"2.0"
	},
	"scene":0,
	"scenes":[
		{
			"name":"Scene",
			"nodes":[
				0,
				1,
				2,
				3
			]
		}
	],
	"nodes":[
		{
			"mesh":0,
			"name":"Desk"
		},
		{
			"mesh":1,
			"name":"paper1",
			"scale":[
				0.5523754954338074,
				0.5523754954338074,
				0.5523754954338074
			],
			"translation":[
				0.3061181902885437,
				0.7630272507667542,
				-0.08387899398803711
			]
		},
		{
			"mesh":2,
			"name":"paper1.001",
			"rotation":[
				0,
				-0.19616101682186127,
				0,
				0.9805717468261719
			],
			"scale":[
				0.5523754954338074,
				0.5523754954338074,
				0.5523754954338074
			],
			"translation":[
				0.46527203917503357,
				0.7630272507667542,
				-0.042555809020996094
			]
		},
		{
			"mesh":3,
			"name":"paper1.002",
			"rotation":[
				0,
				-0.4800514876842499,
				0,
				0.8772403001785278
			],
			"scale":[
				0.5523754954338074,
				0.5523754954338074,
				0.5523754954338074
			],
			"translation":[
				0.5471506118774414,
				0.7630272507667542,
				0.1250801682472229
			]
		}
	],
	"materials":[
		{
			"doubleSided":true,
			"name":"Material.001",
			"pbrMetallicRoughness":{
				"baseColorFactor":[
					0.3105706572532654,
					0.4430520832538605,
					0.294465035200119,
					1
				],
				"metallicFactor":0,
				"roughnessFactor":0.5
			}
		}
	],
	"meshes":[
		{
			"name":"Desk",
			"primitives":[
				{
					"attributes":{
						"POSITION":0,
						"NORMAL":1,
						"TEXCOORD_0":2
					},
					"indices":3,
					"material":0
				}
			]
		},
		{
			"name":"Plane.001",
			"primitives":[
				{
					"attributes":{
						"POSITION":4,
						"NORMAL":5,
						"TEXCOORD_0":6
					},
					"indices":7
				}
			]
		},
		{
			"name":"Plane.003",
			"primitives":[
				{
					"attributes":{
						"POSITION":8,
						"NORMAL":9,
						"TEXCOORD_0":10
					},
					"indices":7
				}
			]
		},
		{
			"name":"Plane.004",
			"primitives":[
				{
					"attributes":{
						"POSITION":11,
						"NORMAL":12,
						"TEXCOORD_0":13
					},
					"indices":7
				}
			]
		}
	],
	"accessors":[
		{
			"bufferView":0,
			"componentType":5126,
			"count":11489,
			"max":[
				0.7427717447280884,
				0.7630274891853333,
				0.32904744148254395
			],
			"min":[
				-0.6383606195449829,
				-0.0005410844460129738,
				-0.3342934250831604
			],
			"type":"VEC3"
		},
		{
			"bufferView":1,
			"componentType":5126,
			"count":11489,
			"type":"VEC3"
		},
		{
			"bufferView":2,
			"componentType":5126,
			"count":11489,
			"type":"VEC2"
		},
		{
			"bufferView":3,
			"componentType":5123,
			"count":41814,
			"type":"SCALAR"
		},
		{
			"bufferView":4,
			"componentType":5126,
			"count":24,
			"max":[
				0.1839054375886917,
				0.003149343654513359,
				0.2758581340312958
			],
			"min":[
				-0.1839054375886917,
				0,
				-0.2758581340312958
			],
			"type":"VEC3"
		},
		{
			"bufferView":5,
			"componentType":5126,
			"count":24,
			"type":"VEC3"
		},
		{
			"bufferView":6,
			"componentType":5126,
			"count":24,
			"type":"VEC2"
		},
		{
			"bufferView":7,
			"componentType":5123,
			"count":36,
			"type":"SCALAR"
		},
		{
			"bufferView":8,
			"componentType":5126,
			"count":24,
			"max":[
				0.1839054375886917,
				0.003149343654513359,
				0.2758581340312958
			],
			"min":[
				-0.1839054375886917,
				0,
				-0.2758581340312958
			],
			"type":"VEC3"
		},
		{
			"bufferView":9,
			"componentType":5126,
			"count":24,
			"type":"VEC3"
		},
		{
			"bufferView":10,
			"componentType":5126,
			"count":24,
			"type":"VEC2"
		},
		{
			"bufferView":11,
			"componentType":5126,
			"count":24,
			"max":[
				0.1839054375886917,
				0.003149343654513359,
				0.2758581340312958
			],
			"min":[
				-0.1839054375886917,
				0,
				-0.2758581340312958
			],
			"type":"VEC3"
		},
		{
			"bufferView":12,
			"componentType":5126,
			"count":24,
			"type":"VEC3"
		},
		{
			"bufferView":13,
			"componentType":5126,
			"count":24,
			"type":"VEC2"
		}
	],
	"bufferViews":[
		{
			"buffer":0,
			"byteLength":137868,
			"byteOffset":0,
			"target":34962
		},
		{
			"buffer":0,
			"byteLength":137868,
			"byteOffset":137868,
			"target":34962
		},
		{
			"buffer":0,
			"byteLength":91912,
			"byteOffset":275736,
			"target":34962
		},
		{
			"buffer":0,
			"byteLength":83628,
			"byteOffset":367648,
			"target":34963
		},
		{
			"buffer":0,
			"byteLength":288,
			"byteOffset":451276,
			"target":34962
		},
		{
			"buffer":0,
			"byteLength":288,
			"byteOffset":451564,
			"target":34962
		},
		{
			"buffer":0,
			"byteLength":192,
			"byteOffset":451852,
			"target":34962
		},
		{
			"buffer":0,
			"byteLength":72,
			"byteOffset":452044,
			"target":34963
		},
		{
			"buffer":0,
			"byteLength":288,
			"byteOffset":452116,
			"target":34962
		},
		{
			"buffer":0,
			"byteLength":288,
			"byteOffset":452404,
			"target":34962
		},
		{
			"buffer":0,
			"byteLength":192,
			"byteOffset":452692,
			"target":34962
		},
		{
			"buffer":0,
			"byteLength":288,
			"byteOffset":452884,
			"target":34962
		},
		{
			"buffer":0,
			"byteLength":288,
			"byteOffset":453172,
			"target":34962
		},
		{
			"buffer":0,
			"byteLength":192,
			"byteOffset":453460,
			"target":34962
		}
	],
	"buffers":[
		{
			"byteLength":453652,
			"uri":"desk%20scene%20for%20portfolio%20site.bin"
		}
	]
}
